<svg xmlns="http://www.w3.org/2000/svg" viewBox="0 0 64 64" role="img" aria-label="Z braces favicon">
  <rect width="64" height="64" rx="14" fill="#111827"/>
  <path d="M20 13c-7 0-10 4-10 10v5c0 3-2 4-5 4 3 0 5 1 5 4v5c0 6 3 10 10 10" fill="none" stroke="#38bdf8" stroke-width="5" stroke-linecap="round" stroke-linejoin="round"/>
  <path d="M44 13c7 0 10 4 10 10v5c0 3 2 4 5 4-3 0-5 1-5 4v5c0 6-3 10-10 10" fill="none" stroke="#facc15" stroke-width="5" stroke-linecap="round" stroke-linejoin="round"/>
  <path d="M25 23h18L25 41h19" fill="none" stroke="#f8fafc" stroke-width="6" stroke-linecap="round" stroke-linejoin="round"/>
  <rect x="28" y="47" width="8" height="4" rx="1" fill="#22c55e"/>
  <circle cx="18" cy="18" r="2" fill="#22c55e"/>
  <circle cx="46" cy="46" r="2" fill="#ef4444"/>
</svg>
